<svg xmlns="http://www.w3.org/2000/svg" xmlns:xlink="http://www.w3.org/1999/xlink" viewBox="0 0 189.12 106.76"><defs><style>.cls-1{fill:url(#Безымянный_градиент);}.cls-2{fill:url(#Безымянный_градиент_2);}.cls-3{fill:url(#Безымянный_градиент_3);}.cls-4{fill:url(#Безымянный_градиент-2);}</style><linearGradient id="Безымянный_градиент" x1="173.03" y1="-4.88" x2="-2.07" y2="101.5" gradientTransform="matrix(1, 0, 0, -1, -4.5, 105.29)" gradientUnits="userSpaceOnUse"><stop offset="0" stop-color="#7f47dd"/><stop offset="0.52" stop-color="#fbae17"/><stop offset="1" stop-color="#fbae17"/></linearGradient><linearGradient id="Безымянный_градиент_2" x1="181.47" y1="31.86" x2="7.52" y2="137.54" xlink:href="#Безымянный_градиент"/><linearGradient id="Безымянный_градиент_3" x1="181.51" y1="16.25" x2="7.56" y2="121.93" xlink:href="#Безымянный_градиент"/><linearGradient id="Безымянный_градиент-2" x1="132.7" y1="30.95" x2="82.67" y2="61.34" xlink:href="#Безымянный_градиент"/></defs><title>logo-svg5</title><g id="Слой_2" data-name="Слой 2"><path class="cls-1" d="M0,80.16a41.49,41.49,0,0,0,16.44,20.55,31.51,31.51,0,0,0,9.45,4.11,12.44,12.44,0,0,0,4.11.41,12.66,12.66,0,0,0,5.75-2.06c1-.63,4.1-2.63,9.86-10.28A80.08,80.08,0,0,0,51,85.08a75.18,75.18,0,0,0,4.93-9.86l3.3-3.67a16.81,16.81,0,0,1,4.11,4.93,17,17,0,0,1,2.06,8.63,10.46,10.46,0,0,1-4.93-3.7c-3-4.28-1.43-9.29-1.23-9.86l-3.29,3.7a18.85,18.85,0,0,0,.41,8.63A14,14,0,0,0,59.6,90a12.91,12.91,0,0,0,4.11,2.88,29,29,0,0,0,4.11-9.86,37,37,0,0,0,4.11,4.48A40.07,40.07,0,0,0,90,97a50.72,50.72,0,0,0,14,1.23,98.27,98.27,0,0,0,14.36-1.68c10.09-2.38,17.14-6.74,22.26-10a92,92,0,0,0,10.09-7.35c.38,2.53.78,4.69,1.12,6.38.76,3.73,1.72,7.57,3.79,10.32l.15.19a13.29,13.29,0,0,0,4.93,3.7A46.79,46.79,0,0,0,166,89.15a41.22,41.22,0,0,1,3.7,9.86,28.11,28.11,0,0,0,6.59-7.38,17.29,17.29,0,0,0,2.88-7.2,15.33,15.33,0,0,0-.43-6l5.11,3.93a20.86,20.86,0,0,0,4.08-7,21.41,21.41,0,0,0,1.09-8.47,31.1,31.1,0,0,0-2.88-10.69c-1.26-2.89-1.82-3.23-2.88-6.17a24.29,24.29,0,0,1-1.64-7,21.33,21.33,0,0,1,.82-7.4,19.24,19.24,0,0,0-4.11,9c-.84,5.44,1.05,10.33,2.47,14,.95,2.45,1.71,3.7,2.47,5.69a20.38,20.38,0,0,1,.82,2.53,17.31,17.31,0,0,1,.29,6.65,16.84,16.84,0,0,1-5.64-3.35c-8.5-7.71-5.45-21.65-5.16-22.87-2.33,3.12-6.71,9.85-5.53,15.88a44.71,44.71,0,0,0,2.06,7c1.26,3.46,1.71,4.06,2.88,7.4a27,27,0,0,1,1.64,5.75,10.06,10.06,0,0,1-1.83,6.46l-1.32-3q-1.3-3-2.6-5.9s-1.54-3.53-3.29-8.63a26.21,26.21,0,0,1-1.23-6.17,30.37,30.37,0,0,1,0-6,22,22,0,0,0-3.32,8.52,27.44,27.44,0,0,0,.41,9,19.33,19.33,0,0,0,.6,2c.82,2.26,1.32,3.75,1.46,4.14.51,1.46.18,4.11-3.8,9.31a62.36,62.36,0,0,1-2.36-6.89c-1.44-5.17-2.7-9.92-1.51-15.43a21.69,21.69,0,0,1,1.32-4.08c-1.75,1.77-4.08,4-7,6.48a91.1,91.1,0,0,1-10.14,7.69A63.58,63.58,0,0,1,126,88.11a60.23,60.23,0,0,1-11.24,2.75,61.87,61.87,0,0,1-14.39.41,48.23,48.23,0,0,1-22.19-7.4A46.36,46.36,0,0,1,61.24,63.72a65,65,0,0,0-6.58,7.83c-2.36,3.3-2.74,4.48-5.75,9s-4.64,7-7,9.45a31.56,31.56,0,0,1-10.69,7.4C22.61,100.44,9.77,93.35,0,80.16Z" transform="translate(0 -4.24)"/><path class="cls-2" d="M119.78,4.24a20.9,20.9,0,0,0-2.88,7,23.28,23.28,0,0,0,0,8.63c.68,4,2,6.68,3.7,10.28,2.26,4.76,4.36,9.6,6.58,14.39,5.26,11.35,6,13.64,6.58,16.44a42.44,42.44,0,0,1,.82,10.69,40.93,40.93,0,0,1-1.64,9.45,33.89,33.89,0,0,0,3.7-8.22,36.08,36.08,0,0,0,.82-16c-.57-3.36-1.76-6.26-4.11-11.92-4.17-10-9.45-20.55-9.45-20.55-2.06-4.11-3.42-6.62-4.11-10.69A28.9,28.9,0,0,1,119.78,4.24Z" transform="translate(0 -4.24)"/><path class="cls-3" d="M178.26,93.29l4.11-6.17,4.93,4.52-3.7,6.58Z" transform="translate(0 -4.24)"/></g><g id="Слой_3" data-name="Слой 3"><path class="cls-4" d="M100.69,101.55A21.33,21.33,0,0,1,104,111a40.16,40.16,0,0,0,.78-5.11,21,21,0,0,0,0-5.17,15.56,15.56,0,0,0-2-5.7c-2.21-2.6-4.11-5-5.71-7.06-1.33-1.73-1.68-2.13-2.1-2.8a16.47,16.47,0,0,1-3-7.78,14.22,14.22,0,0,1,1.2-6.69,15.17,15.17,0,0,1,6.81-7.17,43.35,43.35,0,0,0,.37,8.49c.57,4,1.05,7.8,3.69,11.54a20.58,20.58,0,0,0,6.17,5.75,35.66,35.66,0,0,0,7-15.21,37.5,37.5,0,0,1,4.52,9.86,30.4,30.4,0,0,0,4.52-7.4c.83-1.94,4.6-11.22,1.23-21.37-.09-.28-1.54-3.06-4.43-8.64-4.73-9.12-5.55-10.5-6.93-13.87a49.57,49.57,0,0,1-3.44-11.2,39.91,39.91,0,0,1-.41-8.22,19.76,19.76,0,0,0-2.88,8.22,22.23,22.23,0,0,0,.82,8.22c1,4,2.31,6.71,4.52,11.1,2.65,5.26,3.25,5.43,5.34,9.86a70.74,70.74,0,0,1,3.7,9.45c1.57,5.81.38,12-.6,15.6a68.29,68.29,0,0,0-4.18-11.65c-1.4-3-1.86-3.35-4.26-8.06A106.89,106.89,0,0,1,109,43.55a56.58,56.58,0,0,1-3-10.19,50.53,50.53,0,0,1-.82-9A20.93,20.93,0,0,0,101.93,33c-.72,5.32.92,9.63,2.47,13.56,1.82,4.61,2.51,4,5.75,11.1,2.86,6.21,3.44,9.09,3.7,11.1.37,2.84.73,5.33-.41,8.22a12.83,12.83,0,0,1-4.2,5.42,31.65,31.65,0,0,1-4.42-10,32,32,0,0,1,0-15.21,20.36,20.36,0,0,0-9,3.7C94.62,61.8,89.19,66,88,73.24c-1,6.21,1.66,11.12,4.11,15.62a37.11,37.11,0,0,0,4.93,7Z" transform="translate(0 -4.24)"/></g></svg>