<svg xmlns="http://www.w3.org/2000/svg" viewBox="0 0 190.5 111.79"><defs><style>.cls-1{fill:#405631;}.cls-2{font-size:25px;fill:#828481;font-family:Seravek-Bold, Seravek;font-weight:700;}.cls-3{letter-spacing:0.02em;}</style></defs><title>logo-svg3</title><g id="Слой_2" data-name="Слой 2"><path class="cls-1" d="M4.5,94.61a41.49,41.49,0,0,0,16.44,20.55,31.51,31.51,0,0,0,9.45,4.11,12.44,12.44,0,0,0,4.11.41,12.66,12.66,0,0,0,5.75-2.06c1-.63,4.1-2.63,9.86-10.28a80.08,80.08,0,0,0,5.34-7.81,75.18,75.18,0,0,0,4.93-9.86L63.68,86a16.81,16.81,0,0,1,4.11,4.93,17,17,0,0,1,2.06,8.63,10.46,10.46,0,0,1-4.93-3.7c-3-4.28-1.43-9.29-1.23-9.86l-3.29,3.7a18.85,18.85,0,0,0,.41,8.63,14,14,0,0,0,3.29,6.17,12.91,12.91,0,0,0,4.11,2.88,29,29,0,0,0,4.11-9.86A37,37,0,0,0,76.43,102a40.07,40.07,0,0,0,18.08,9.45,50.72,50.72,0,0,0,14,1.23A72.18,72.18,0,0,0,122.87,111a21.33,21.33,0,0,1,3.29,9.45,36.44,36.44,0,0,0,.82-10.28l14.8-7.81c5.49-3.25,9.7-5.74,12.33-7.4.67-.42,2.16-1.37,3.29-.82a2.85,2.85,0,0,1,1.23,2.06c.28,1.7-.71,2.76-1.23,4.11-1.74,4.52,2.67,10,2.88,10.28a13.29,13.29,0,0,0,4.93,3.7,46.79,46.79,0,0,0,5.34-10.69,41.22,41.22,0,0,1,3.7,9.86,29,29,0,0,0,5.34-7,30.35,30.35,0,0,0,3.29-9.86,33.62,33.62,0,0,0,.41-3.7l4.52,2.88a23.55,23.55,0,0,0,3.7-5.75,20.55,20.55,0,0,0,2.06-8.63c0-4.11-1.39-7.29-2.88-10.69-1.26-2.89-1.82-3.23-2.88-6.17a24.29,24.29,0,0,1-1.64-7,21.33,21.33,0,0,1,.82-7.4,19.24,19.24,0,0,0-4.11,9c-.84,5.44,1.05,10.33,2.47,14,1.29,3.33,2.24,4.45,3.29,8.22a37.45,37.45,0,0,1,1.23,7,20.7,20.7,0,0,1-6.58-3.7,18.6,18.6,0,0,1-6.17-20.14,16.93,16.93,0,0,0-4.52,13.15c.16,1.78.8,3.54,2.06,7s1.71,4.06,2.88,7.4a27.11,27.11,0,0,1,1.64,5.75,15.66,15.66,0,0,1-1.23,7.81c-1-2.37-2.61-5.89-4.52-10.28,0,0-1.54-3.53-3.29-8.63a16.88,16.88,0,0,1-1.23-6.17,14.39,14.39,0,0,1,.82-4.52,14.94,14.94,0,0,0-4.11,7,18,18,0,0,0,.41,9c.81,3.32,1.6,3.69,2.06,6.17a15.67,15.67,0,0,1-1.23,9,15.77,15.77,0,0,1-4.93-6.58,16.48,16.48,0,0,1-.82-8.63,18.79,18.79,0,0,1,1.23-4.52,44.76,44.76,0,0,0-9,2.88,51,51,0,0,0-6.17,3.29c-3.66,2.21-3.5,2.59-6.58,4.52A44.09,44.09,0,0,1,127,104.06c-.88.2-1.61.33-2.06.41-3.27-3.85-5.87-7.23-7.81-9.86-2.78-3.77-3.76-5.43-4.11-7.81a12.15,12.15,0,0,1,1.23-7.4,10.42,10.42,0,0,1,9.45-5.75,21.79,21.79,0,0,0-1.23,7.81A21.51,21.51,0,0,0,126.16,93a20.58,20.58,0,0,0,6.17,5.75,35.66,35.66,0,0,0,7-15.21,37.5,37.5,0,0,1,4.52,9.86,30.4,30.4,0,0,0,4.52-7.4,33,33,0,0,0,1.23-21.37c-.5-1.82-2-4.91-4.93-11.1-2.06-4.32-3.43-6.84-6.17-12.74-2.45-5.29-3.2-7.26-3.7-9.86a29.76,29.76,0,0,1-.41-8.22,19.76,19.76,0,0,0-2.88,8.22,22.23,22.23,0,0,0,.82,8.22c1,4,2.31,6.71,4.52,11.1,2.65,5.26,3.25,5.43,5.34,9.86a52.23,52.23,0,0,1,3.7,9.45,35.93,35.93,0,0,1,.41,15.62c-4-7.9-7.16-14.61-9.45-19.73-.5-1.11-2.25-5.4-5.75-14a46.29,46.29,0,0,1-2.88-8.63,38.89,38.89,0,0,1-.82-9,20.93,20.93,0,0,0-3.29,8.63c-.72,5.32.92,9.63,2.47,13.56,1.82,4.61,2.51,4,5.75,11.1,2.86,6.21,3.44,9.09,3.7,11.1a20.85,20.85,0,0,1-.41,8.22A19.11,19.11,0,0,1,134,90.5a20,20,0,0,1-7-8.63,20.63,20.63,0,0,1,0-15.21,20.36,20.36,0,0,0-9,3.7c-1.2.89-6.63,5.08-7.81,12.33-1,6.21,1.66,11.12,4.11,15.62a37.11,37.11,0,0,0,4.93,7,54.69,54.69,0,0,1-14.39.41,48.23,48.23,0,0,1-22.19-7.4A46.36,46.36,0,0,1,65.74,78.17,65,65,0,0,0,59.16,86c-2.36,3.3-2.74,4.48-5.75,9s-4.64,7-7,9.45c-3,3.08-6.07,6.27-10.69,7.4-5.06,1.24-9.38-.65-13.56-2.47A42.45,42.45,0,0,1,4.5,94.61Z" transform="translate(-4.5 -8.71)"/><path class="cls-1" d="M143,8.71a20.9,20.9,0,0,0-2.88,7,23.28,23.28,0,0,0,0,8.63c.68,4,2,6.68,3.7,10.28,2.26,4.76,4.36,9.6,6.58,14.39,5.26,11.35,6,13.64,6.58,16.44a42.44,42.44,0,0,1,.82,10.69,40.93,40.93,0,0,1-1.64,9.45,33.89,33.89,0,0,0,3.7-8.22,36.08,36.08,0,0,0,.82-16c-.57-3.36-1.76-6.26-4.11-11.92-4.17-10-9.45-20.55-9.45-20.55-2.06-4.11-3.42-6.62-4.11-10.69A28.9,28.9,0,0,1,143,8.71Z" transform="translate(-4.5 -8.71)"/><path class="cls-1" d="M186,107.55l4.11-6.17,4.93,4.52-3.7,6.58Z" transform="translate(-4.5 -8.71)"/></g><g id="Слой_4" data-name="Слой 4"><text class="cls-2" transform="translate(4.28 47.25)">BISMIL<tspan class="cls-3" x="77.07" y="0">L</tspan><tspan x="89.82" y="0">A</tspan></text></g></svg>